<svg width="21" height="20" viewBox="0 0 21 20" fill="none" xmlns="http://www.w3.org/2000/svg">
<path d="M2.16669 1.66669H3.61669C4.51669 1.66669 5.22502 2.44169 5.15002 3.33335L4.45835 11.6333C4.34169 12.9917 5.41668 14.1583 6.78335 14.1583H15.6584C16.8584 14.1583 17.9084 13.175 18 11.9834L18.45 5.73336C18.55 4.35002 17.5 3.22502 16.1083 3.22502H5.35003" stroke="#040415" stroke-width="1.5" stroke-miterlimit="10" stroke-linecap="round" stroke-linejoin="round"/>
<path d="M14.0417 18.3333C14.617 18.3333 15.0833 17.867 15.0833 17.2917C15.0833 16.7164 14.617 16.25 14.0417 16.25C13.4664 16.25 13 16.7164 13 17.2917C13 17.867 13.4664 18.3333 14.0417 18.3333Z" stroke="#040415" stroke-width="1.5" stroke-miterlimit="10" stroke-linecap="round" stroke-linejoin="round"/>
<path d="M7.37498 18.3333C7.95028 18.3333 8.41665 17.867 8.41665 17.2917C8.41665 16.7164 7.95028 16.25 7.37498 16.25C6.79968 16.25 6.33331 16.7164 6.33331 17.2917C6.33331 17.867 6.79968 18.3333 7.37498 18.3333Z" stroke="#040415" stroke-width="1.5" stroke-miterlimit="10" stroke-linecap="round" stroke-linejoin="round"/>
<path d="M8 6.66669H18" stroke="#040415" stroke-width="1.5" stroke-miterlimit="10" stroke-linecap="round" stroke-linejoin="round"/>
</svg>
